<?xml version="1.0" encoding="UTF-8"?>
<svg width="1024px" height="1024px" viewBox="0 0 1024 1024" version="1.1" xmlns="http://www.w3.org/2000/svg" xmlns:xlink="http://www.w3.org/1999/xlink">
    <title>outline</title>
    <g id="outline" stroke="none" stroke-width="1" fill="none" fill-rule="evenodd">
        <path d="M512,2 C793.665222,2 1022,230.334778 1022,512 C1022,793.665222 793.665222,1022 512,1022 C230.334778,1022 2,793.665222 2,512 C2,230.334778 230.334778,2 512,2 Z M512,137.491113 C305.164453,137.491113 137.491113,305.164453 137.491113,512 C137.491113,631.68532 193.634089,738.257746 281.020699,806.817935 L359.490099,333.699219 L592.296387,333.699219 C712.386509,333.699219 779.805525,409.620239 760.843926,524.556229 C742.071944,640.430686 649.995372,711.865723 527.543855,713.282837 L523.82395,713.304321 L443.237157,713.304321 L416.374893,873.582031 L414.136625,873.593252 C445.332509,882.015767 478.141542,886.508887 512,886.508887 C718.835547,886.508887 886.508887,718.835547 886.508887,512 C886.508887,305.164453 718.835547,137.491113 512,137.491113 Z M537.705547,460.429029 C509.277127,460.429029 486.23134,483.497492 486.23134,511.953883 C486.23134,540.410275 509.277127,563.478738 537.705547,563.478738 C566.133967,563.478738 589.179755,540.410275 589.179755,511.953883 C589.179755,483.497492 566.133967,460.429029 537.705547,460.429029 Z M664.904033,460.429029 C636.475614,460.429029 613.429826,483.497492 613.429826,511.953883 C613.429826,540.410275 636.475614,563.478738 664.904033,563.478738 C693.332453,563.478738 716.378241,540.410275 716.378241,511.953883 C716.378241,483.497492 693.332453,460.429029 664.904033,460.429029 Z" id="Combined-Shape" fill="#1CCE93"></path>
    </g>
</svg>