<?xml version="1.0" encoding="UTF-8"?>
<svg width="1782px" height="1694px" viewBox="0 0 1782 1694" version="1.1" xmlns="http://www.w3.org/2000/svg" xmlns:xlink="http://www.w3.org/1999/xlink">
    <title>readme copy 2</title>
    <g id="readme-copy-2" stroke="none" stroke-width="1" fill="none" fill-rule="evenodd">
        <path d="M891,34 C1172.66522,34 1401,262.334778 1401,544 C1401,825.665222 1172.66522,1054 891,1054 C609.334778,1054 381,825.665222 381,544 C381,262.334778 609.334778,34 891,34 Z M891,169.491113 C684.164453,169.491113 516.491113,337.164453 516.491113,544 C516.491113,663.68532 572.634089,770.257746 660.020699,838.817935 L738.490099,365.699219 L971.296387,365.699219 C1091.38651,365.699219 1158.80552,441.620239 1139.84393,556.556229 C1121.07194,672.430686 1028.99537,743.865723 906.543855,745.282837 L902.82395,745.304321 L822.237157,745.304321 L795.374893,905.582031 L793.136625,905.593252 C824.332509,914.015767 857.141542,918.508887 891,918.508887 C1097.83555,918.508887 1265.50889,750.835547 1265.50889,544 C1265.50889,337.164453 1097.83555,169.491113 891,169.491113 Z M916.705547,492.429029 C888.277127,492.429029 865.23134,515.497492 865.23134,543.953883 C865.23134,572.410275 888.277127,595.478738 916.705547,595.478738 C945.133967,595.478738 968.179755,572.410275 968.179755,543.953883 C968.179755,515.497492 945.133967,492.429029 916.705547,492.429029 Z M1043.90403,492.429029 C1015.47561,492.429029 992.429826,515.497492 992.429826,543.953883 C992.429826,572.410275 1015.47561,595.478738 1043.90403,595.478738 C1072.33245,595.478738 1095.37824,572.410275 1095.37824,543.953883 C1095.37824,515.497492 1072.33245,492.429029 1043.90403,492.429029 Z M404.24978,1182.00037 C489.749699,1182.00037 537.749653,1236.00031 524.249666,1317.75024 C510.749679,1401.00016 443.999743,1452.00011 355.499827,1452.00011 L355.499827,1452.00011 L298.124882,1452.00011 L278.9999,1566 L174.749999,1566 L238.499938,1182.00037 Z M663.599841,1182.00037 L638.849865,1332.75022 L641.849862,1332.75022 C660.599844,1296.00026 695.84981,1274.25028 738.59977,1274.25028 C799.349712,1274.25028 831.599681,1319.25024 821.099691,1382.25018 L821.099691,1382.25018 L790.34972,1566 L686.849819,1566 L713.849793,1404.00015 C718.349789,1375.50018 706.3498,1358.2502 680.099825,1358.2502 C654.59985,1358.2502 635.099868,1375.50018 630.599873,1404.00015 L630.599873,1404.00015 L603.599898,1566 L500.099997,1566 L563.849936,1182.00037 L663.599841,1182.00037 Z M365.999817,1265.25029 L329.249852,1265.25029 L311.624869,1371.00019 L347.999834,1371.00019 C385.499798,1371.00019 410.249775,1350.75021 415.49977,1317.75024 C420.749765,1284.75027 402.749782,1265.25029 365.999817,1265.25029 L365.999817,1265.25029 Z M1001.69982,1274.25028 C1087.82974,1274.25028 1134.26565,1329.38085 1120.63128,1419.26574 L1120.19971,1422.00014 L1116.44971,1446.00011 L929.137391,1446.00011 L928.199892,1450.50011 C923.699896,1478.25008 937.949883,1498.50006 968.699853,1498.50006 C989.489834,1498.50006 1008.07459,1489.67917 1017.17689,1473.49284 L1017.44981,1473.00009 L1111.94972,1473.00009 C1091.69974,1533.00003 1034.69979,1571.24999 954.449867,1571.24999 C862.199955,1571.24999 814.95,1515.75005 830.699985,1422.75014 C845.699971,1333.50022 912.449907,1274.25028 1001.69982,1274.25028 Z M1491.14982,1274.25028 C1584.52473,1274.25028 1630.08719,1334.25022 1615.6497,1422.75014 C1600.83721,1511.25005 1535.39978,1571.24999 1441.64987,1571.24999 C1347.89996,1571.24999 1302.3375,1511.25005 1317.14998,1422.75014 C1320.61032,1401.53871 1327.00037,1381.96446 1336.01291,1364.46111 C1326.46996,1362.19549 1314.23062,1361.2502 1305.29982,1361.2502 C1275.59984,1361.2502 1249.57524,1382.56735 1243.23593,1415.01353 L1243.04988,1416.00014 L1218.2999,1566 L1114.8,1566 L1162.79995,1278.00027 L1263.29986,1278.00027 L1254.29986,1332.75022 L1257.29986,1332.75022 C1274.54985,1292.25026 1301.54982,1274.25028 1332.29979,1274.25028 C1340.97835,1274.25028 1348.95953,1275.64505 1356.9158,1277.76211 L1357.79977,1278.00027 L1346.02535,1347.45899 C1376.49309,1301.94613 1427.20041,1274.25028 1491.14982,1274.25028 Z M1478.39983,1349.25021 C1451.39986,1349.25021 1430.21238,1376.81268 1422.89988,1422.00014 C1415.39989,1467.18759 1427.21238,1494.75007 1454.39985,1494.75007 C1481.21233,1494.75007 1502.39981,1467.18759 1509.8998,1422.00014 C1517.21229,1376.81268 1505.39981,1349.25021 1478.39983,1349.25021 Z M992.69983,1347.00021 C968.011729,1347.00021 946.080156,1363.35561 940.004136,1388.24339 L939.824881,1389.00017 L1030.19979,1389.00017 C1033.94979,1364.25019 1018.19981,1347.00021 992.69983,1347.00021 Z" id="Combined-Shape" fill="#1CCE93"></path>
    </g>
</svg>